<svg width="440" height="103" viewBox="0 0 440 103" fill="none" xmlns="http://www.w3.org/2000/svg">
<path d="M97.5109 6.10352e-05H144.836L112.655 50.4371H65.3301L97.5109 6.10352e-05Z" fill="#B6A5FE"/>
<path d="M18.0056 6.10352e-05H65.3304L33.1495 50.4371H-14.1752L18.0056 6.10352e-05Z" fill="#B6A5FE"/>
<path d="M177.016 6.10352e-05H224.341L192.16 50.4371H144.835L177.016 6.10352e-05Z" fill="#B6A5FE"/>
<path d="M256.522 6.10352e-05H303.846L271.666 50.4371H224.341L256.522 6.10352e-05Z" fill="#B6A5FE"/>
<path d="M317.094 6.10352e-05H364.419L332.238 50.4371H284.914L317.094 6.10352e-05Z" fill="#B6A5FE"/>
<path d="M373.887 6.10352e-05H421.212L389.031 50.4371H341.706L373.887 6.10352e-05Z" fill="#B6A5FE"/>
<path d="M430.675 6.10352e-05H478L445.819 50.4371H398.495L430.675 6.10352e-05Z" fill="#B6A5FE"/>
<path d="M366.808 51.1476H428.781L386.639 102.295H324.666L366.808 51.1476Z" fill="#B6A5FE"/>
<path d="M446.81 51.1476H508.782L466.641 102.295H404.668L446.81 51.1476Z" fill="#B6A5FE"/>
<path d="M266.482 51.1476H328.455L286.314 102.295H224.341L266.482 51.1476Z" fill="#B6A5FE"/>
<path d="M168.044 51.1476H230.017L187.876 102.295H125.903L168.044 51.1476Z" fill="#B6A5FE"/>
<path d="M77.632 51.1476H145.78L109.497 102.295H46.3976L77.632 51.1476Z" fill="#B6A5FE"/>
<path d="M-3.76568 51.1476H64.3819L28.0996 102.295H-35L-3.76568 51.1476Z" fill="#B6A5FE"/>
</svg>
