<svg width="76" height="16" viewBox="0 0 76 16" fill="none" xmlns="http://www.w3.org/2000/svg">
<path d="M72.2699 4.4468C74.7859 4.4468 76 6.20405 76 8.2394V12.0622H73.367V8.693C73.367 7.7705 73.0304 7.0091 72.0652 7.0091C71.0999 7.0091 70.7782 7.7705 70.7782 8.693V12.0617H68.1452V8.693C68.1452 7.7705 67.8235 7.0091 66.8578 7.0091C65.8925 7.0091 65.5559 7.7705 65.5559 8.693V12.0617H62.9234V8.23895C62.9234 6.2036 64.1371 4.44635 66.653 4.44635C68.0282 4.44635 69.0227 4.98815 69.4763 5.8814C69.9587 4.98815 71.0122 4.4468 72.2699 4.4468ZM58.1921 9.719C59.0404 9.719 59.4062 8.94275 59.4062 8.0198V4.7393H62.0387V8.342C62.0387 10.4948 60.781 12.2818 58.1921 12.2818C55.6028 12.2818 54.3451 10.4953 54.3451 8.342V4.7393H56.978V8.0198C56.978 8.9423 57.3434 9.719 58.1921 9.719ZM50.4737 12.2962C48.8209 12.2962 47.753 11.7251 47.1239 10.6123L49.0256 9.54305C49.2889 10.0115 49.6835 10.246 50.3419 10.246C50.8832 10.246 51.1316 10.0556 51.1316 9.82115C51.1316 8.9279 47.2702 9.836 47.2702 6.99515C47.2702 5.61815 48.4402 4.5053 50.4296 4.5053C52.1702 4.5053 53.1211 5.35445 53.5454 6.1748L51.6437 7.2584C51.4831 6.8192 50.9854 6.5555 50.4881 6.5555C50.1079 6.5555 49.9031 6.7166 49.9031 6.9362C49.9031 7.8443 53.7646 7.00955 53.7646 9.76265C53.7646 11.3003 52.258 12.2962 50.4737 12.2962ZM41.2748 15.4304H38.6419V8.3861C38.6419 6.1451 40.324 4.5197 42.6644 4.5197C44.9464 4.5197 46.687 6.26255 46.687 8.3861C46.687 10.7293 45.1363 12.2818 42.8107 12.2818C42.2693 12.2818 41.7284 12.1207 41.2748 11.8714V15.4304ZM42.6644 9.80675C43.4983 9.80675 44.054 9.16235 44.054 8.4005C44.054 7.6247 43.4983 6.9947 42.6644 6.9947C41.8306 6.9947 41.2748 7.6247 41.2748 8.40095C41.2748 9.16235 41.8306 9.80675 42.6644 9.80675ZM36.0044 3.9635C35.1413 3.9635 34.4249 3.24575 34.4249 2.38175C34.4249 1.51775 35.1413 0.800003 36.0044 0.800003C36.8675 0.800003 37.5844 1.51775 37.5844 2.38175C37.5844 3.24575 36.8675 3.9635 36.0044 3.9635ZM34.6882 4.7393H37.3211V12.0622H34.6882V4.7393ZM29.6365 12.2818C27.3545 12.2818 25.6139 10.5245 25.6139 8.3861C25.6139 6.26255 27.3545 4.5053 29.6365 4.5053C31.9184 4.5053 33.659 6.26255 33.659 8.3861C33.659 10.5245 31.9184 12.2818 29.6365 12.2818ZM29.6365 9.80675C30.4703 9.80675 31.0261 9.16235 31.0261 8.4005C31.0261 7.6247 30.4703 6.9803 29.6365 6.9803C28.8026 6.9803 28.2469 7.6247 28.2469 8.4005C28.2469 9.16235 28.8026 9.80675 29.6365 9.80675ZM20.6423 15.65C18.8288 15.65 17.5121 14.8445 16.8394 13.409L19.0187 12.2377C19.2527 12.7358 19.6915 13.2484 20.5982 13.2484C21.5495 13.2484 22.1782 12.6476 22.2515 11.5933C21.9005 11.9011 21.3443 12.1351 20.5109 12.1351C18.4774 12.1351 16.8389 10.5682 16.8389 8.37125C16.8389 6.24815 18.58 4.5197 20.8619 4.5197C23.2024 4.5197 24.8845 6.14555 24.8845 8.3861V11.2859C24.8845 13.922 23.0557 15.65 20.6423 15.65ZM20.8178 9.6605C21.6076 9.6605 22.2074 9.11825 22.2074 8.31275C22.2074 7.5221 21.608 6.9947 20.8178 6.9947C20.0425 6.9947 19.4282 7.5221 19.4282 8.3132C19.4282 9.1187 20.0425 9.6605 20.8178 9.6605ZM12.3731 12.2818C10.0912 12.2818 8.35012 10.5245 8.35012 8.3861C8.35012 6.26255 10.0912 4.5053 12.3731 4.5053C14.6546 4.5053 16.3957 6.26255 16.3957 8.3861C16.3957 10.5245 14.6551 12.2818 12.3731 12.2818ZM12.3731 9.80675C13.207 9.80675 13.7627 9.16235 13.7627 8.4005C13.7627 7.6247 13.207 6.9803 12.3731 6.9803C11.5393 6.9803 10.9835 7.6247 10.9835 8.4005C10.9835 9.16235 11.5393 9.80675 12.3731 9.80675ZM3.55583 2.177V9.5723H7.91497V12.0622H3.18997C1.52272 12.0622 0.849976 11.1833 0.849976 9.7919V2.177H3.55583Z" fill="#5E5E5E"/>
</svg>
