<svg width="18" height="18" viewBox="0 0 18 18" fill="none" xmlns="http://www.w3.org/2000/svg">
<path d="M9.00002 17.9999C13.9707 17.9999 18 13.9706 18 8.99995V2.69995C18 1.98386 17.7156 1.29711 17.2092 0.790758C16.7029 0.28441 16.0161 -5.34058e-05 15.3 -5.34058e-05H9.45002V3.94825C9.45002 4.84915 9.50492 5.78245 9.97742 6.54925C10.3157 7.09879 10.7682 7.56915 11.3042 7.92841C11.8403 8.28766 12.4474 8.52742 13.0842 8.6314L13.2566 8.6593C13.3276 8.68358 13.3893 8.72948 13.433 8.79056C13.4767 8.85165 13.5001 8.92486 13.5001 8.99995C13.5001 9.07504 13.4767 9.14825 13.433 9.20933C13.3893 9.27041 13.3276 9.31631 13.2566 9.3406L13.0842 9.3685C12.1537 9.5205 11.2944 9.96095 10.6277 10.6277C9.96102 11.2944 9.52058 12.1536 9.36857 13.0841L9.34067 13.2565C9.31639 13.3276 9.27049 13.3892 9.20941 13.4329C9.14832 13.4766 9.07511 13.5001 9.00002 13.5001C8.92493 13.5001 8.85172 13.4766 8.79064 13.4329C8.72956 13.3892 8.68366 13.3276 8.65937 13.2565L8.63147 13.0841C8.52746 12.4473 8.2877 11.8402 7.92844 11.3042C7.56919 10.7681 7.09885 10.3156 6.54932 9.97735C5.78252 9.50485 4.84922 9.44995 3.94832 9.44995H0.0108215C0.246172 14.2114 4.18052 17.9999 9.00002 17.9999Z" fill="#375DFB"/>
<path d="M0 8.55H3.9483C4.8492 8.55 5.7825 8.4951 6.5493 8.0226C7.14871 7.65328 7.65328 7.14871 8.0226 6.5493C8.4951 5.7825 8.55 4.8492 8.55 3.9483V9.82003e-07H2.7C1.98392 9.82003e-07 1.29716 0.284464 0.790812 0.790813C0.284463 1.29716 0 1.98392 0 2.7V8.55Z" fill="#375DFB"/>
</svg>
