<svg width="408" height="58" viewBox="0 0 408 58" fill="none" xmlns="http://www.w3.org/2000/svg">
<g filter="url(#filter0_d_0_185)">
<path d="M0 19.2C0 12.4794 0 9.11905 1.30792 6.55211C2.4584 4.29417 4.29417 2.4584 6.55211 1.30792C9.11905 0 12.4794 0 19.2 0H388.8C395.521 0 398.881 0 401.448 1.30792C403.706 2.4584 405.542 4.29417 406.692 6.55211C408 9.11905 408 12.4794 408 19.2V34.8C408 41.5206 408 44.8809 406.692 47.4479C405.542 49.7058 403.706 51.5416 401.448 52.6921C398.881 54 395.521 54 388.8 54H19.2C12.4794 54 9.11905 54 6.55211 52.6921C4.29417 51.5416 2.4584 49.7058 1.30792 47.4479C0 44.8809 0 41.5206 0 34.8V19.2Z" fill="#090909"/>
<path d="M19.2002 0.5H388.8C392.168 0.5 394.665 0.500686 396.641 0.662109C398.611 0.823073 400.019 1.14185 401.221 1.75391C403.385 2.85644 405.144 4.61547 406.246 6.7793C406.858 7.98053 407.177 9.38927 407.338 11.3594C407.499 13.3353 407.5 15.8317 407.5 19.2002V34.7998C407.5 38.1682 407.499 40.6647 407.338 42.6406C407.177 44.6107 406.858 46.0195 406.246 47.2207C405.144 49.3845 403.385 51.1436 401.221 52.2461C400.019 52.8582 398.611 53.1769 396.641 53.3379C394.665 53.4993 392.168 53.5 388.8 53.5H19.2002C15.8317 53.5 13.3353 53.4993 11.3594 53.3379C9.38927 53.1769 7.98053 52.8582 6.7793 52.2461C4.61547 51.1436 2.85644 49.3845 1.75391 47.2207C1.14185 46.0195 0.823073 44.6107 0.662109 42.6406C0.500686 40.6647 0.5 38.1682 0.5 34.7998V19.2002C0.5 15.8317 0.500686 13.3353 0.662109 11.3594C0.823073 9.38927 1.14185 7.98053 1.75391 6.7793C2.85644 4.61547 4.61547 2.85644 6.7793 1.75391C7.98053 1.14185 9.38927 0.823073 11.3594 0.662109C13.3353 0.500686 15.8317 0.5 19.2002 0.5Z" stroke="white" stroke-opacity="0.32"/>
<path d="M197.328 21.8H199.184V33.56L191.008 25.48V33H189.152V21.24L197.328 29.32V21.8ZM204.564 33.16C203.817 33.16 203.156 33 202.58 32.68C202.014 32.36 201.577 31.912 201.268 31.336C200.958 30.76 200.804 30.088 200.804 29.32C200.804 28.5413 200.958 27.864 201.268 27.288C201.588 26.712 202.036 26.2693 202.612 25.96C203.188 25.64 203.865 25.48 204.644 25.48C205.422 25.48 206.084 25.6293 206.628 25.928C207.172 26.2267 207.588 26.6587 207.876 27.224C208.174 27.7787 208.324 28.4507 208.324 29.24C208.324 29.3253 208.318 29.416 208.308 29.512C208.308 29.608 208.302 29.6773 208.292 29.72H201.828V28.536H206.82L206.292 29.272C206.324 29.208 206.356 29.1227 206.388 29.016C206.43 28.8987 206.452 28.8027 206.452 28.728C206.452 28.3333 206.372 27.992 206.212 27.704C206.062 27.416 205.849 27.192 205.572 27.032C205.305 26.872 204.99 26.792 204.628 26.792C204.19 26.792 203.817 26.888 203.508 27.08C203.198 27.272 202.964 27.5493 202.804 27.912C202.644 28.2747 202.558 28.7227 202.548 29.256C202.548 29.7893 202.628 30.2427 202.788 30.616C202.948 30.9787 203.182 31.256 203.492 31.448C203.812 31.64 204.196 31.736 204.644 31.736C205.113 31.736 205.524 31.64 205.876 31.448C206.228 31.256 206.521 30.9627 206.756 30.568L208.244 31.176C207.86 31.8373 207.364 32.3333 206.756 32.664C206.148 32.9947 205.417 33.16 204.564 33.16ZM213.819 25.64H215.755L213.115 29.208L215.915 33H213.979L212.203 30.472L210.459 33H208.475L211.291 29.208L208.635 25.64H210.619L212.203 27.944L213.819 25.64ZM215.832 25.64H220.008V27.16H215.832V25.64ZM217.064 23.08H218.776V33H217.064V23.08Z" fill="white"/>
</g>
<defs>
<filter id="filter0_d_0_185" x="0" y="0" width="408" height="58" filterUnits="userSpaceOnUse" color-interpolation-filters="sRGB">
<feFlood flood-opacity="0" result="BackgroundImageFix"/>
<feColorMatrix in="SourceAlpha" type="matrix" values="0 0 0 0 0 0 0 0 0 0 0 0 0 0 0 0 0 0 127 0" result="hardAlpha"/>
<feOffset dy="4"/>
<feComposite in2="hardAlpha" operator="out"/>
<feColorMatrix type="matrix" values="0 0 0 0 0.16194 0 0 0 0 0.16194 0 0 0 0 0.16194 0 0 0 1 0"/>
<feBlend mode="normal" in2="BackgroundImageFix" result="effect1_dropShadow_0_185"/>
<feBlend mode="normal" in="SourceGraphic" in2="effect1_dropShadow_0_185" result="shape"/>
</filter>
</defs>
</svg>
