<svg width="281" height="81" viewBox="0 0 281 81" fill="none" xmlns="http://www.w3.org/2000/svg">
<path d="M281.002 81H6.51172V49.2051L0 43.2295L6.51172 37.252V0H281.002V81Z" fill="#EADC30"/>
<path d="M25.422 20.774L25.66 19.192H30.364L30.602 20.774H25.422ZM27.984 16.378L26.514 19.752L26.556 20.2L25.268 23H23.014L27.984 12.626L32.954 23H30.686L29.426 20.284L29.454 19.78L27.984 16.378ZM34.0171 13.2H36.0191V21.25H39.9251V23H34.0171V13.2ZM43.2278 17.498L42.5978 23H40.5118L41.9678 12.71L46.0698 19.038L50.1718 12.71L51.6278 23H49.5418L48.9118 17.498L46.0698 22.09L43.2278 17.498ZM54.7528 18.1C54.7528 18.7253 54.8834 19.2807 55.1448 19.766C55.4061 20.2513 55.7654 20.634 56.2228 20.914C56.6801 21.194 57.2121 21.334 57.8188 21.334C58.4254 21.334 58.9574 21.194 59.4148 20.914C59.8721 20.634 60.2268 20.2513 60.4788 19.766C60.7401 19.2807 60.8708 18.7253 60.8708 18.1C60.8708 17.4747 60.7448 16.9193 60.4928 16.434C60.2408 15.9487 59.8861 15.566 59.4288 15.286C58.9714 15.006 58.4348 14.866 57.8188 14.866C57.2121 14.866 56.6801 15.006 56.2228 15.286C55.7654 15.566 55.4061 15.9487 55.1448 16.434C54.8834 16.9193 54.7528 17.4747 54.7528 18.1ZM52.6388 18.1C52.6388 17.3533 52.7694 16.672 53.0308 16.056C53.2921 15.4307 53.6561 14.8893 54.1228 14.432C54.5894 13.9747 55.1354 13.6247 55.7608 13.382C56.3954 13.13 57.0814 13.004 57.8188 13.004C58.5654 13.004 59.2514 13.13 59.8768 13.382C60.5021 13.6247 61.0481 13.9747 61.5148 14.432C61.9908 14.8893 62.3548 15.4307 62.6068 16.056C62.8681 16.672 62.9988 17.3533 62.9988 18.1C62.9988 18.8373 62.8681 19.5233 62.6068 20.158C62.3548 20.7833 61.9954 21.3293 61.5288 21.796C61.0714 22.2627 60.5254 22.6267 59.8908 22.888C59.2654 23.14 58.5748 23.266 57.8188 23.266C57.0628 23.266 56.3674 23.14 55.7328 22.888C55.1074 22.6267 54.5614 22.2627 54.0948 21.796C53.6281 21.3293 53.2688 20.7833 53.0168 20.158C52.7648 19.5233 52.6388 18.8373 52.6388 18.1ZM65.4004 19.71C65.6058 20.074 65.8298 20.3913 66.0724 20.662C66.3244 20.9327 66.5998 21.1427 66.8984 21.292C67.1971 21.4413 67.5191 21.516 67.8644 21.516C68.2658 21.516 68.5924 21.4133 68.8444 21.208C69.0964 21.0027 69.2224 20.7227 69.2224 20.368C69.2224 20.06 69.1431 19.8127 68.9844 19.626C68.8351 19.4393 68.6064 19.276 68.2984 19.136C67.9998 18.9867 67.6311 18.828 67.1924 18.66C66.9591 18.576 66.6884 18.464 66.3804 18.324C66.0818 18.1747 65.7971 17.988 65.5264 17.764C65.2558 17.5307 65.0318 17.2507 64.8544 16.924C64.6771 16.588 64.5884 16.1867 64.5884 15.72C64.5884 15.16 64.7284 14.6793 65.0084 14.278C65.2978 13.8673 65.6851 13.5547 66.1704 13.34C66.6651 13.116 67.2158 13.004 67.8224 13.004C68.4478 13.004 68.9844 13.1113 69.4324 13.326C69.8898 13.5313 70.2678 13.7973 70.5664 14.124C70.8744 14.4413 71.1124 14.7727 71.2804 15.118L69.7124 15.986C69.5818 15.7527 69.4231 15.5427 69.2364 15.356C69.0591 15.16 68.8538 15.006 68.6204 14.894C68.3871 14.7727 68.1211 14.712 67.8224 14.712C67.4304 14.712 67.1364 14.8053 66.9404 14.992C66.7444 15.1693 66.6464 15.3793 66.6464 15.622C66.6464 15.8647 66.7258 16.0793 66.8844 16.266C67.0431 16.4433 67.2858 16.616 67.6124 16.784C67.9391 16.9427 68.3498 17.106 68.8444 17.274C69.1618 17.386 69.4651 17.526 69.7544 17.694C70.0531 17.862 70.3191 18.0673 70.5524 18.31C70.7951 18.5433 70.9818 18.8233 71.1124 19.15C71.2524 19.4673 71.3224 19.836 71.3224 20.256C71.3224 20.732 71.2291 21.1567 71.0424 21.53C70.8558 21.9033 70.5991 22.2207 70.2724 22.482C69.9458 22.734 69.5771 22.9253 69.1664 23.056C68.7651 23.196 68.3404 23.266 67.8924 23.266C67.2951 23.266 66.7351 23.154 66.2124 22.93C65.6991 22.6967 65.2511 22.384 64.8684 21.992C64.4858 21.6 64.1871 21.1753 63.9724 20.718L65.4004 19.71ZM71.9746 15.006V13.2H79.2546V15.006H76.6086V23H74.6066V15.006H71.9746ZM84.5894 13.2H86.6334V23H84.5894V13.2ZM87.9214 23H85.8774V21.18H87.8514C88.2807 21.18 88.6867 21.124 89.0694 21.012C89.4521 20.8907 89.7881 20.704 90.0774 20.452C90.3667 20.2 90.5907 19.8827 90.7494 19.5C90.9174 19.108 91.0014 18.6413 91.0014 18.1C91.0014 17.5587 90.9174 17.0967 90.7494 16.714C90.5907 16.322 90.3667 16 90.0774 15.748C89.7881 15.496 89.4521 15.314 89.0694 15.202C88.6867 15.0807 88.2807 15.02 87.8514 15.02H85.8774V13.2H87.9214C88.9481 13.2 89.8441 13.4007 90.6094 13.802C91.3841 14.2033 91.9861 14.7727 92.4154 15.51C92.8447 16.238 93.0594 17.1013 93.0594 18.1C93.0594 19.0987 92.8447 19.9667 92.4154 20.704C91.9861 21.432 91.3841 21.9967 90.6094 22.398C89.8441 22.7993 88.9481 23 87.9214 23ZM96.1649 18.1C96.1649 18.7253 96.2955 19.2807 96.5569 19.766C96.8182 20.2513 97.1775 20.634 97.6349 20.914C98.0922 21.194 98.6242 21.334 99.2309 21.334C99.8375 21.334 100.37 21.194 100.827 20.914C101.284 20.634 101.639 20.2513 101.891 19.766C102.152 19.2807 102.283 18.7253 102.283 18.1C102.283 17.4747 102.157 16.9193 101.905 16.434C101.653 15.9487 101.298 15.566 100.841 15.286C100.384 15.006 99.8469 14.866 99.2309 14.866C98.6242 14.866 98.0922 15.006 97.6349 15.286C97.1775 15.566 96.8182 15.9487 96.5569 16.434C96.2955 16.9193 96.1649 17.4747 96.1649 18.1ZM94.0509 18.1C94.0509 17.3533 94.1815 16.672 94.4429 16.056C94.7042 15.4307 95.0682 14.8893 95.5349 14.432C96.0015 13.9747 96.5475 13.6247 97.1729 13.382C97.8075 13.13 98.4935 13.004 99.2309 13.004C99.9775 13.004 100.664 13.13 101.289 13.382C101.914 13.6247 102.46 13.9747 102.927 14.432C103.403 14.8893 103.767 15.4307 104.019 16.056C104.28 16.672 104.411 17.3533 104.411 18.1C104.411 18.8373 104.28 19.5233 104.019 20.158C103.767 20.7833 103.408 21.3293 102.941 21.796C102.484 22.2627 101.938 22.6267 101.303 22.888C100.678 23.14 99.9869 23.266 99.2309 23.266C98.4749 23.266 97.7795 23.14 97.1449 22.888C96.5195 22.6267 95.9735 22.2627 95.5069 21.796C95.0402 21.3293 94.6809 20.7833 94.4289 20.158C94.1769 19.5233 94.0509 18.8373 94.0509 18.1ZM112.931 13.2H114.863V23.49L107.891 16.924V23H105.959V12.71L112.931 19.276V13.2ZM118.28 23V21.306H123.222V23H118.28ZM118.28 14.894V13.2H123.222V14.894H118.28ZM118.28 18.632V16.966H122.942V18.632H118.28ZM116.992 13.2H118.924V23H116.992V13.2ZM125.937 21.46L127.743 21.908L126.049 25.408L124.705 25.086L125.937 21.46ZM133.863 13.2H135.865V21.25H139.771V23H133.863V13.2ZM142.206 23V21.306H147.148V23H142.206ZM142.206 14.894V13.2H147.148V14.894H142.206ZM142.206 18.632V16.966H146.868V18.632H142.206ZM140.918 13.2H142.85V23H140.918V13.2ZM148.141 15.006V13.2H155.421V15.006H152.775V23H150.773V15.006H148.141ZM156.978 13.2H158.91L157.468 16.658H156.194L156.978 13.2ZM161.814 19.71C162.02 20.074 162.244 20.3913 162.486 20.662C162.738 20.9327 163.014 21.1427 163.312 21.292C163.611 21.4413 163.933 21.516 164.278 21.516C164.68 21.516 165.006 21.4133 165.258 21.208C165.51 21.0027 165.636 20.7227 165.636 20.368C165.636 20.06 165.557 19.8127 165.398 19.626C165.249 19.4393 165.02 19.276 164.712 19.136C164.414 18.9867 164.045 18.828 163.606 18.66C163.373 18.576 163.102 18.464 162.794 18.324C162.496 18.1747 162.211 17.988 161.94 17.764C161.67 17.5307 161.446 17.2507 161.268 16.924C161.091 16.588 161.002 16.1867 161.002 15.72C161.002 15.16 161.142 14.6793 161.422 14.278C161.712 13.8673 162.099 13.5547 162.584 13.34C163.079 13.116 163.63 13.004 164.236 13.004C164.862 13.004 165.398 13.1113 165.846 13.326C166.304 13.5313 166.682 13.7973 166.98 14.124C167.288 14.4413 167.526 14.7727 167.694 15.118L166.126 15.986C165.996 15.7527 165.837 15.5427 165.65 15.356C165.473 15.16 165.268 15.006 165.034 14.894C164.801 14.7727 164.535 14.712 164.236 14.712C163.844 14.712 163.55 14.8053 163.354 14.992C163.158 15.1693 163.06 15.3793 163.06 15.622C163.06 15.8647 163.14 16.0793 163.298 16.266C163.457 16.4433 163.7 16.616 164.026 16.784C164.353 16.9427 164.764 17.106 165.258 17.274C165.576 17.386 165.879 17.526 166.168 17.694C166.467 17.862 166.733 18.0673 166.966 18.31C167.209 18.5433 167.396 18.8233 167.526 19.15C167.666 19.4673 167.736 19.836 167.736 20.256C167.736 20.732 167.643 21.1567 167.456 21.53C167.27 21.9033 167.013 22.2207 166.686 22.482C166.36 22.734 165.991 22.9253 165.58 23.056C165.179 23.196 164.754 23.266 164.306 23.266C163.709 23.266 163.149 23.154 162.626 22.93C162.113 22.6967 161.665 22.384 161.282 21.992C160.9 21.6 160.601 21.1753 160.386 20.718L161.814 19.71ZM174.924 20.774L175.162 19.192H179.866L180.104 20.774H174.924ZM177.486 16.378L176.016 19.752L176.058 20.2L174.77 23H172.516L177.486 12.626L182.456 23H180.188L178.928 20.284L178.956 19.78L177.486 16.378ZM183.519 13.2H185.563V23H183.519V13.2ZM186.851 23H184.807V21.18H186.781C187.21 21.18 187.616 21.124 187.999 21.012C188.382 20.8907 188.718 20.704 189.007 20.452C189.296 20.2 189.52 19.8827 189.679 19.5C189.847 19.108 189.931 18.6413 189.931 18.1C189.931 17.5587 189.847 17.0967 189.679 16.714C189.52 16.322 189.296 16 189.007 15.748C188.718 15.496 188.382 15.314 187.999 15.202C187.616 15.0807 187.21 15.02 186.781 15.02H184.807V13.2H186.851C187.878 13.2 188.774 13.4007 189.539 13.802C190.314 14.2033 190.916 14.7727 191.345 15.51C191.774 16.238 191.989 17.1013 191.989 18.1C191.989 19.0987 191.774 19.9667 191.345 20.704C190.916 21.432 190.314 21.9967 189.539 22.398C188.774 22.7993 187.878 23 186.851 23ZM193.541 13.2H195.585V23H193.541V13.2ZM196.873 23H194.829V21.18H196.803C197.232 21.18 197.638 21.124 198.021 21.012C198.403 20.8907 198.739 20.704 199.029 20.452C199.318 20.2 199.542 19.8827 199.701 19.5C199.869 19.108 199.953 18.6413 199.953 18.1C199.953 17.5587 199.869 17.0967 199.701 16.714C199.542 16.322 199.318 16 199.029 15.748C198.739 15.496 198.403 15.314 198.021 15.202C197.638 15.0807 197.232 15.02 196.803 15.02H194.829V13.2H196.873C197.899 13.2 198.795 13.4007 199.561 13.802C200.335 14.2033 200.937 14.7727 201.367 15.51C201.796 16.238 202.011 17.1013 202.011 18.1C202.011 19.0987 201.796 19.9667 201.367 20.704C200.937 21.432 200.335 21.9967 199.561 22.398C198.795 22.7993 197.899 23 196.873 23ZM213.205 13.2H215.487L212.113 18.94V23H210.083V18.954L206.709 13.2H208.991L211.091 17.148L213.205 13.2ZM217.421 18.1C217.421 18.7253 217.551 19.2807 217.813 19.766C218.074 20.2513 218.433 20.634 218.891 20.914C219.348 21.194 219.88 21.334 220.487 21.334C221.093 21.334 221.625 21.194 222.083 20.914C222.54 20.634 222.895 20.2513 223.147 19.766C223.408 19.2807 223.539 18.7253 223.539 18.1C223.539 17.4747 223.413 16.9193 223.161 16.434C222.909 15.9487 222.554 15.566 222.097 15.286C221.639 15.006 221.103 14.866 220.487 14.866C219.88 14.866 219.348 15.006 218.891 15.286C218.433 15.566 218.074 15.9487 217.813 16.434C217.551 16.9193 217.421 17.4747 217.421 18.1ZM215.307 18.1C215.307 17.3533 215.437 16.672 215.699 16.056C215.96 15.4307 216.324 14.8893 216.791 14.432C217.257 13.9747 217.803 13.6247 218.429 13.382C219.063 13.13 219.749 13.004 220.487 13.004C221.233 13.004 221.919 13.13 222.545 13.382C223.17 13.6247 223.716 13.9747 224.183 14.432C224.659 14.8893 225.023 15.4307 225.275 16.056C225.536 16.672 225.667 17.3533 225.667 18.1C225.667 18.8373 225.536 19.5233 225.275 20.158C225.023 20.7833 224.663 21.3293 224.197 21.796C223.739 22.2627 223.193 22.6267 222.559 22.888C221.933 23.14 221.243 23.266 220.487 23.266C219.731 23.266 219.035 23.14 218.401 22.888C217.775 22.6267 217.229 22.2627 216.763 21.796C216.296 21.3293 215.937 20.7833 215.685 20.158C215.433 19.5233 215.307 18.8373 215.307 18.1ZM227.144 13.2H229.146V19.654C229.146 20.214 229.291 20.6667 229.58 21.012C229.879 21.348 230.318 21.516 230.896 21.516C231.475 21.516 231.909 21.348 232.198 21.012C232.497 20.6667 232.646 20.214 232.646 19.654V13.2H234.648V19.78C234.648 20.3587 234.555 20.8673 234.368 21.306C234.182 21.7447 233.916 22.1133 233.57 22.412C233.234 22.7107 232.838 22.9347 232.38 23.084C231.923 23.2427 231.428 23.322 230.896 23.322C230.355 23.322 229.856 23.2427 229.398 23.084C228.941 22.9347 228.544 22.7107 228.208 22.412C227.872 22.1133 227.611 21.7447 227.424 21.306C227.238 20.8673 227.144 20.3587 227.144 19.78V13.2ZM238.915 18.436H241.029L244.221 23H241.855L238.915 18.436ZM236.689 13.2H238.691V23H236.689V13.2ZM237.907 14.908V13.2H239.979C240.754 13.2 241.412 13.3307 241.953 13.592C242.494 13.8533 242.91 14.2173 243.199 14.684C243.488 15.1507 243.633 15.6967 243.633 16.322C243.633 16.938 243.488 17.484 243.199 17.96C242.91 18.4267 242.494 18.7907 241.953 19.052C241.412 19.3133 240.754 19.444 239.979 19.444H237.907V17.848H239.853C240.208 17.848 240.511 17.792 240.763 17.68C241.024 17.5587 241.225 17.3907 241.365 17.176C241.505 16.952 241.575 16.686 241.575 16.378C241.575 16.07 241.505 15.8087 241.365 15.594C241.225 15.37 241.024 15.202 240.763 15.09C240.511 14.9687 240.208 14.908 239.853 14.908H237.907ZM24.064 33.2H26.066V43H24.064V33.2ZM25.282 34.894V33.2H27.228C28.0027 33.2 28.6607 33.326 29.202 33.578C29.7527 33.83 30.1727 34.1893 30.462 34.656C30.7513 35.1227 30.896 35.678 30.896 36.322C30.896 36.9567 30.7513 37.512 30.462 37.988C30.1727 38.4547 29.7527 38.814 29.202 39.066C28.6607 39.318 28.0027 39.444 27.228 39.444H25.282V37.75H27.228C27.76 37.75 28.18 37.6287 28.488 37.386C28.796 37.1433 28.95 36.7887 28.95 36.322C28.95 35.846 28.796 35.4913 28.488 35.258C28.18 35.0153 27.76 34.894 27.228 34.894H25.282ZM34.6709 38.436H36.7849L39.9769 43H37.6109L34.6709 38.436ZM32.4449 33.2H34.4469V43H32.4449V33.2ZM33.6629 34.908V33.2H35.7349C36.5095 33.2 37.1675 33.3307 37.7089 33.592C38.2502 33.8533 38.6655 34.2173 38.9549 34.684C39.2442 35.1507 39.3889 35.6967 39.3889 36.322C39.3889 36.938 39.2442 37.484 38.9549 37.96C38.6655 38.4267 38.2502 38.7907 37.7089 39.052C37.1675 39.3133 36.5095 39.444 35.7349 39.444H33.6629V37.848H35.6089C35.9635 37.848 36.2669 37.792 36.5189 37.68C36.7802 37.5587 36.9809 37.3907 37.1209 37.176C37.2609 36.952 37.3309 36.686 37.3309 36.378C37.3309 36.07 37.2609 35.8087 37.1209 35.594C36.9809 35.37 36.7802 35.202 36.5189 35.09C36.2669 34.9687 35.9635 34.908 35.6089 34.908H33.6629ZM42.6805 38.1C42.6805 38.7253 42.8112 39.2807 43.0725 39.766C43.3338 40.2513 43.6932 40.634 44.1505 40.914C44.6078 41.194 45.1398 41.334 45.7465 41.334C46.3532 41.334 46.8852 41.194 47.3425 40.914C47.7998 40.634 48.1545 40.2513 48.4065 39.766C48.6678 39.2807 48.7985 38.7253 48.7985 38.1C48.7985 37.4747 48.6725 36.9193 48.4205 36.434C48.1685 35.9487 47.8138 35.566 47.3565 35.286C46.8992 35.006 46.3625 34.866 45.7465 34.866C45.1398 34.866 44.6078 35.006 44.1505 35.286C43.6932 35.566 43.3338 35.9487 43.0725 36.434C42.8112 36.9193 42.6805 37.4747 42.6805 38.1ZM40.5665 38.1C40.5665 37.3533 40.6972 36.672 40.9585 36.056C41.2198 35.4307 41.5838 34.8893 42.0505 34.432C42.5172 33.9747 43.0632 33.6247 43.6885 33.382C44.3232 33.13 45.0092 33.004 45.7465 33.004C46.4932 33.004 47.1792 33.13 47.8045 33.382C48.4298 33.6247 48.9758 33.9747 49.4425 34.432C49.9185 34.8893 50.2825 35.4307 50.5345 36.056C50.7958 36.672 50.9265 37.3533 50.9265 38.1C50.9265 38.8373 50.7958 39.5233 50.5345 40.158C50.2825 40.7833 49.9232 41.3293 49.4565 41.796C48.9992 42.2627 48.4532 42.6267 47.8185 42.888C47.1932 43.14 46.5025 43.266 45.7465 43.266C44.9905 43.266 44.2952 43.14 43.6605 42.888C43.0352 42.6267 42.4892 42.2627 42.0225 41.796C41.5558 41.3293 41.1965 40.7833 40.9445 40.158C40.6925 39.5233 40.5665 38.8373 40.5665 38.1ZM53.7622 34.95V33.2H58.1442V34.95H53.7622ZM53.7622 38.814V37.148H58.0042V38.814H53.7622ZM52.4742 33.2H54.4062V43H52.4742V33.2ZM59.98 33.2H62.01V43H59.98V33.2ZM64.1226 33.2H66.1246V41.25H70.0306V43H64.1226V33.2ZM72.4653 43V41.306H77.4073V43H72.4653ZM72.4653 34.894V33.2H77.4073V34.894H72.4653ZM72.4653 38.632V36.966H77.1273V38.632H72.4653ZM71.1773 33.2H73.1093V43H71.1773V33.2ZM83.5777 33.2H85.5797V43H83.5777V33.2ZM84.7957 34.894V33.2H86.7417C87.5163 33.2 88.1743 33.326 88.7157 33.578C89.2663 33.83 89.6863 34.1893 89.9757 34.656C90.265 35.1227 90.4097 35.678 90.4097 36.322C90.4097 36.9567 90.265 37.512 89.9757 37.988C89.6863 38.4547 89.2663 38.814 88.7157 39.066C88.1743 39.318 87.5163 39.444 86.7417 39.444H84.7957V37.75H86.7417C87.2737 37.75 87.6937 37.6287 88.0017 37.386C88.3097 37.1433 88.4637 36.7887 88.4637 36.322C88.4637 35.846 88.3097 35.4913 88.0017 35.258C87.6937 35.0153 87.2737 34.894 86.7417 34.894H84.7957ZM91.9585 33.2H93.9885V43H91.9585V33.2ZM97.7111 38.1C97.7111 38.744 97.8558 39.3087 98.1451 39.794C98.4438 40.27 98.8311 40.6387 99.3071 40.9C99.7831 41.152 100.301 41.278 100.861 41.278C101.328 41.278 101.743 41.2173 102.107 41.096C102.471 40.9747 102.798 40.8113 103.087 40.606C103.386 40.4007 103.642 40.1767 103.857 39.934V42.188C103.456 42.5053 103.017 42.7527 102.541 42.93C102.074 43.1073 101.482 43.196 100.763 43.196C100.016 43.196 99.3211 43.0747 98.6771 42.832C98.0424 42.5893 97.4871 42.2393 97.0111 41.782C96.5444 41.3247 96.1804 40.788 95.9191 40.172C95.6671 39.5467 95.5411 38.856 95.5411 38.1C95.5411 37.344 95.6671 36.658 95.9191 36.042C96.1804 35.4167 96.5444 34.8753 97.0111 34.418C97.4871 33.9607 98.0424 33.6107 98.6771 33.368C99.3211 33.1253 100.016 33.004 100.763 33.004C101.482 33.004 102.074 33.0927 102.541 33.27C103.017 33.4473 103.456 33.6947 103.857 34.012V36.266C103.642 36.0233 103.386 35.7993 103.087 35.594C102.798 35.3887 102.471 35.2253 102.107 35.104C101.743 34.9827 101.328 34.922 100.861 34.922C100.301 34.922 99.7831 35.0527 99.3071 35.314C98.8311 35.566 98.4438 35.93 98.1451 36.406C97.8558 36.882 97.7111 37.4467 97.7111 38.1ZM104.445 35.006V33.2H111.725V35.006H109.079V43H107.077V35.006H104.445ZM112.793 33.2H114.795V39.654C114.795 40.214 114.939 40.6667 115.229 41.012C115.527 41.348 115.966 41.516 116.545 41.516C117.123 41.516 117.557 41.348 117.847 41.012C118.145 40.6667 118.295 40.214 118.295 39.654V33.2H120.297V39.78C120.297 40.3587 120.203 40.8673 120.017 41.306C119.83 41.7447 119.564 42.1133 119.219 42.412C118.883 42.7107 118.486 42.9347 118.029 43.084C117.571 43.2427 117.077 43.322 116.545 43.322C116.003 43.322 115.504 43.2427 115.047 43.084C114.589 42.9347 114.193 42.7107 113.857 42.412C113.521 42.1133 113.259 41.7447 113.073 41.306C112.886 40.8673 112.793 40.3587 112.793 39.78V33.2ZM124.563 38.436H126.677L129.869 43H127.503L124.563 38.436ZM122.337 33.2H124.339V43H122.337V33.2ZM123.555 34.908V33.2H125.627C126.402 33.2 127.06 33.3307 127.601 33.592C128.143 33.8533 128.558 34.2173 128.847 34.684C129.137 35.1507 129.281 35.6967 129.281 36.322C129.281 36.938 129.137 37.484 128.847 37.96C128.558 38.4267 128.143 38.7907 127.601 39.052C127.06 39.3133 126.402 39.444 125.627 39.444H123.555V37.848H125.501C125.856 37.848 126.159 37.792 126.411 37.68C126.673 37.5587 126.873 37.3907 127.013 37.176C127.153 36.952 127.223 36.686 127.223 36.378C127.223 36.07 127.153 35.8087 127.013 35.594C126.873 35.37 126.673 35.202 126.411 35.09C126.159 34.9687 125.856 34.908 125.501 34.908H123.555ZM132.307 43V41.306H137.249V43H132.307ZM132.307 34.894V33.2H137.249V34.894H132.307ZM132.307 38.632V36.966H136.969V38.632H132.307ZM131.019 33.2H132.951V43H131.019V33.2ZM144.777 40.774L145.015 39.192H149.719L149.957 40.774H144.777ZM147.339 36.378L145.869 39.752L145.911 40.2L144.623 43H142.369L147.339 32.626L152.309 43H150.041L148.781 40.284L148.809 39.78L147.339 36.378ZM160.345 33.2H162.277V43.49L155.305 36.924V43H153.373V32.71L160.345 39.276V33.2ZM164.406 33.2H166.45V43H164.406V33.2ZM167.738 43H165.694V41.18H167.668C168.097 41.18 168.503 41.124 168.886 41.012C169.268 40.8907 169.604 40.704 169.894 40.452C170.183 40.2 170.407 39.8827 170.566 39.5C170.734 39.108 170.818 38.6413 170.818 38.1C170.818 37.5587 170.734 37.0967 170.566 36.714C170.407 36.322 170.183 36 169.894 35.748C169.604 35.496 169.268 35.314 168.886 35.202C168.503 35.0807 168.097 35.02 167.668 35.02H165.694V33.2H167.738C168.764 33.2 169.66 33.4007 170.426 33.802C171.2 34.2033 171.802 34.7727 172.232 35.51C172.661 36.238 172.876 37.1013 172.876 38.1C172.876 39.0987 172.661 39.9667 172.232 40.704C171.802 41.432 171.2 41.9967 170.426 42.398C169.66 42.7993 168.764 43 167.738 43ZM178.555 33.2H180.557V39.654C180.557 40.214 180.701 40.6667 180.991 41.012C181.289 41.348 181.728 41.516 182.307 41.516C182.885 41.516 183.319 41.348 183.609 41.012C183.907 40.6667 184.057 40.214 184.057 39.654V33.2H186.059V39.78C186.059 40.3587 185.965 40.8673 185.779 41.306C185.592 41.7447 185.326 42.1133 184.981 42.412C184.645 42.7107 184.248 42.9347 183.791 43.084C183.333 43.2427 182.839 43.322 182.307 43.322C181.765 43.322 181.266 43.2427 180.809 43.084C180.351 42.9347 179.955 42.7107 179.619 42.412C179.283 42.1133 179.021 41.7447 178.835 41.306C178.648 40.8673 178.555 40.3587 178.555 39.78V33.2ZM188.099 33.2H190.101V43H188.099V33.2ZM189.317 34.894V33.2H191.263C192.038 33.2 192.696 33.326 193.237 33.578C193.788 33.83 194.208 34.1893 194.497 34.656C194.786 35.1227 194.931 35.678 194.931 36.322C194.931 36.9567 194.786 37.512 194.497 37.988C194.208 38.4547 193.788 38.814 193.237 39.066C192.696 39.318 192.038 39.444 191.263 39.444H189.317V37.75H191.263C191.795 37.75 192.215 37.6287 192.523 37.386C192.831 37.1433 192.985 36.7887 192.985 36.322C192.985 35.846 192.831 35.4913 192.523 35.258C192.215 35.0153 191.795 34.894 191.263 34.894H189.317ZM196.48 33.2H198.482V41.25H202.388V43H196.48V33.2ZM204.665 38.1C204.665 38.7253 204.796 39.2807 205.057 39.766C205.318 40.2513 205.678 40.634 206.135 40.914C206.592 41.194 207.124 41.334 207.731 41.334C208.338 41.334 208.87 41.194 209.327 40.914C209.784 40.634 210.139 40.2513 210.391 39.766C210.652 39.2807 210.783 38.7253 210.783 38.1C210.783 37.4747 210.657 36.9193 210.405 36.434C210.153 35.9487 209.798 35.566 209.341 35.286C208.884 35.006 208.347 34.866 207.731 34.866C207.124 34.866 206.592 35.006 206.135 35.286C205.678 35.566 205.318 35.9487 205.057 36.434C204.796 36.9193 204.665 37.4747 204.665 38.1ZM202.551 38.1C202.551 37.3533 202.682 36.672 202.943 36.056C203.204 35.4307 203.568 34.8893 204.035 34.432C204.502 33.9747 205.048 33.6247 205.673 33.382C206.308 33.13 206.994 33.004 207.731 33.004C208.478 33.004 209.164 33.13 209.789 33.382C210.414 33.6247 210.96 33.9747 211.427 34.432C211.903 34.8893 212.267 35.4307 212.519 36.056C212.78 36.672 212.911 37.3533 212.911 38.1C212.911 38.8373 212.78 39.5233 212.519 40.158C212.267 40.7833 211.908 41.3293 211.441 41.796C210.984 42.2627 210.438 42.6267 209.803 42.888C209.178 43.14 208.487 43.266 207.731 43.266C206.975 43.266 206.28 43.14 205.645 42.888C205.02 42.6267 204.474 42.2627 204.007 41.796C203.54 41.3293 203.181 40.7833 202.929 40.158C202.677 39.5233 202.551 38.8373 202.551 38.1ZM215.393 40.774L215.631 39.192H220.335L220.573 40.774H215.393ZM217.955 36.378L216.485 39.752L216.527 40.2L215.239 43H212.985L217.955 32.626L222.925 43H220.657L219.397 40.284L219.425 39.78L217.955 36.378ZM223.988 33.2H226.032V43H223.988V33.2ZM227.32 43H225.276V41.18H227.25C227.679 41.18 228.085 41.124 228.468 41.012C228.85 40.8907 229.186 40.704 229.476 40.452C229.765 40.2 229.989 39.8827 230.148 39.5C230.316 39.108 230.4 38.6413 230.4 38.1C230.4 37.5587 230.316 37.0967 230.148 36.714C229.989 36.322 229.765 36 229.476 35.748C229.186 35.496 228.85 35.314 228.468 35.202C228.085 35.0807 227.679 35.02 227.25 35.02H225.276V33.2H227.32C228.346 33.2 229.242 33.4007 230.008 33.802C230.782 34.2033 231.384 34.7727 231.814 35.51C232.243 36.238 232.458 37.1013 232.458 38.1C232.458 39.0987 232.243 39.9667 231.814 40.704C231.384 41.432 230.782 41.9967 230.008 42.398C229.242 42.7993 228.346 43 227.32 43ZM29.51 53.2H31.792L28.418 58.94V63H26.388V58.954L23.014 53.2H25.296L27.396 57.148L29.51 53.2ZM33.7254 58.1C33.7254 58.7253 33.8561 59.2807 34.1174 59.766C34.3788 60.2513 34.7381 60.634 35.1954 60.914C35.6528 61.194 36.1848 61.334 36.7914 61.334C37.3981 61.334 37.9301 61.194 38.3874 60.914C38.8448 60.634 39.1994 60.2513 39.4514 59.766C39.7128 59.2807 39.8434 58.7253 39.8434 58.1C39.8434 57.4747 39.7174 56.9193 39.4654 56.434C39.2134 55.9487 38.8588 55.566 38.4014 55.286C37.9441 55.006 37.4074 54.866 36.7914 54.866C36.1848 54.866 35.6528 55.006 35.1954 55.286C34.7381 55.566 34.3788 55.9487 34.1174 56.434C33.8561 56.9193 33.7254 57.4747 33.7254 58.1ZM31.6114 58.1C31.6114 57.3533 31.7421 56.672 32.0034 56.056C32.2648 55.4307 32.6288 54.8893 33.0954 54.432C33.5621 53.9747 34.1081 53.6247 34.7334 53.382C35.3681 53.13 36.0541 53.004 36.7914 53.004C37.5381 53.004 38.2241 53.13 38.8494 53.382C39.4748 53.6247 40.0208 53.9747 40.4874 54.432C40.9634 54.8893 41.3274 55.4307 41.5794 56.056C41.8408 56.672 41.9714 57.3533 41.9714 58.1C41.9714 58.8373 41.8408 59.5233 41.5794 60.158C41.3274 60.7833 40.9681 61.3293 40.5014 61.796C40.0441 62.2627 39.4981 62.6267 38.8634 62.888C38.2381 63.14 37.5474 63.266 36.7914 63.266C36.0354 63.266 35.3401 63.14 34.7054 62.888C34.0801 62.6267 33.5341 62.2627 33.0674 61.796C32.6008 61.3293 32.2414 60.7833 31.9894 60.158C31.7374 59.5233 31.6114 58.8373 31.6114 58.1ZM43.4491 53.2H45.4511V59.654C45.4511 60.214 45.5957 60.6667 45.8851 61.012C46.1837 61.348 46.6224 61.516 47.2011 61.516C47.7797 61.516 48.2137 61.348 48.5031 61.012C48.8017 60.6667 48.9511 60.214 48.9511 59.654V53.2H50.9531V59.78C50.9531 60.3587 50.8597 60.8673 50.6731 61.306C50.4864 61.7447 50.2204 62.1133 49.8751 62.412C49.5391 62.7107 49.1424 62.9347 48.6851 63.084C48.2277 63.2427 47.7331 63.322 47.2011 63.322C46.6597 63.322 46.1604 63.2427 45.7031 63.084C45.2457 62.9347 44.8491 62.7107 44.5131 62.412C44.1771 62.1133 43.9157 61.7447 43.7291 61.306C43.5424 60.8673 43.4491 60.3587 43.4491 59.78V53.2ZM55.2197 58.436H57.3337L60.5257 63H58.1597L55.2197 58.436ZM52.9937 53.2H54.9957V63H52.9937V53.2ZM54.2117 54.908V53.2H56.2837C57.0584 53.2 57.7164 53.3307 58.2577 53.592C58.799 53.8533 59.2144 54.2173 59.5037 54.684C59.793 55.1507 59.9377 55.6967 59.9377 56.322C59.9377 56.938 59.793 57.484 59.5037 57.96C59.2144 58.4267 58.799 58.7907 58.2577 59.052C57.7164 59.3133 57.0584 59.444 56.2837 59.444H54.2117V57.848H56.1577C56.5124 57.848 56.8157 57.792 57.0677 57.68C57.329 57.5587 57.5297 57.3907 57.6697 57.176C57.8097 56.952 57.8797 56.686 57.8797 56.378C57.8797 56.07 57.8097 55.8087 57.6697 55.594C57.5297 55.37 57.329 55.202 57.0677 55.09C56.8157 54.9687 56.5124 54.908 56.1577 54.908H54.2117ZM68.0986 58.436H70.2126L73.4046 63H71.0386L68.0986 58.436ZM65.8726 53.2H67.8746V63H65.8726V53.2ZM67.0906 54.908V53.2H69.1626C69.9373 53.2 70.5953 53.3307 71.1366 53.592C71.6779 53.8533 72.0933 54.2173 72.3826 54.684C72.6719 55.1507 72.8166 55.6967 72.8166 56.322C72.8166 56.938 72.6719 57.484 72.3826 57.96C72.0933 58.4267 71.6779 58.7907 71.1366 59.052C70.5953 59.3133 69.9373 59.444 69.1626 59.444H67.0906V57.848H69.0366C69.3913 57.848 69.6946 57.792 69.9466 57.68C70.2079 57.5587 70.4086 57.3907 70.5486 57.176C70.6886 56.952 70.7586 56.686 70.7586 56.378C70.7586 56.07 70.6886 55.8087 70.5486 55.594C70.4086 55.37 70.2079 55.202 69.9466 55.09C69.6946 54.9687 69.3913 54.908 69.0366 54.908H67.0906ZM75.8422 63V61.306H80.7842V63H75.8422ZM75.8422 54.894V53.2H80.7842V54.894H75.8422ZM75.8422 58.632V56.966H80.5042V58.632H75.8422ZM74.5542 53.2H76.4862V63H74.5542V53.2ZM83.6114 59.71C83.8167 60.074 84.0407 60.3913 84.2834 60.662C84.5354 60.9327 84.8107 61.1427 85.1094 61.292C85.408 61.4413 85.73 61.516 86.0754 61.516C86.4767 61.516 86.8034 61.4133 87.0554 61.208C87.3074 61.0027 87.4334 60.7227 87.4334 60.368C87.4334 60.06 87.354 59.8127 87.1954 59.626C87.046 59.4393 86.8174 59.276 86.5094 59.136C86.2107 58.9867 85.842 58.828 85.4034 58.66C85.17 58.576 84.8994 58.464 84.5914 58.324C84.2927 58.1747 84.008 57.988 83.7374 57.764C83.4667 57.5307 83.2427 57.2507 83.0654 56.924C82.888 56.588 82.7994 56.1867 82.7994 55.72C82.7994 55.16 82.9394 54.6793 83.2194 54.278C83.5087 53.8673 83.896 53.5547 84.3814 53.34C84.876 53.116 85.4267 53.004 86.0334 53.004C86.6587 53.004 87.1954 53.1113 87.6434 53.326C88.1007 53.5313 88.4787 53.7973 88.7774 54.124C89.0854 54.4413 89.3234 54.7727 89.4914 55.118L87.9234 55.986C87.7927 55.7527 87.634 55.5427 87.4474 55.356C87.27 55.16 87.0647 55.006 86.8314 54.894C86.598 54.7727 86.332 54.712 86.0334 54.712C85.6414 54.712 85.3474 54.8053 85.1514 54.992C84.9554 55.1693 84.8574 55.3793 84.8574 55.622C84.8574 55.8647 84.9367 56.0793 85.0954 56.266C85.254 56.4433 85.4967 56.616 85.8234 56.784C86.15 56.9427 86.5607 57.106 87.0554 57.274C87.3727 57.386 87.676 57.526 87.9654 57.694C88.264 57.862 88.53 58.0673 88.7634 58.31C89.006 58.5433 89.1927 58.8233 89.3234 59.15C89.4634 59.4673 89.5334 59.836 89.5334 60.256C89.5334 60.732 89.44 61.1567 89.2534 61.53C89.0667 61.9033 88.81 62.2207 88.4834 62.482C88.1567 62.734 87.788 62.9253 87.3774 63.056C86.976 63.196 86.5514 63.266 86.1034 63.266C85.506 63.266 84.946 63.154 84.4234 62.93C83.91 62.6967 83.462 62.384 83.0794 61.992C82.6967 61.6 82.398 61.1753 82.1834 60.718L83.6114 59.71ZM91.0956 53.2H93.0976V59.654C93.0976 60.214 93.2422 60.6667 93.5316 61.012C93.8302 61.348 94.2689 61.516 94.8476 61.516C95.4262 61.516 95.8602 61.348 96.1496 61.012C96.4482 60.6667 96.5976 60.214 96.5976 59.654V53.2H98.5996V59.78C98.5996 60.3587 98.5062 60.8673 98.3196 61.306C98.1329 61.7447 97.8669 62.1133 97.5216 62.412C97.1856 62.7107 96.7889 62.9347 96.3316 63.084C95.8742 63.2427 95.3796 63.322 94.8476 63.322C94.3062 63.322 93.8069 63.2427 93.3496 63.084C92.8922 62.9347 92.4956 62.7107 92.1596 62.412C91.8236 62.1133 91.5622 61.7447 91.3756 61.306C91.1889 60.8673 91.0956 60.3587 91.0956 59.78V53.2ZM102.796 57.498L102.166 63H100.08L101.536 52.71L105.638 59.038L109.74 52.71L111.196 63H109.11L108.48 57.498L105.638 62.09L102.796 57.498ZM114.055 63V61.306H118.997V63H114.055ZM114.055 54.894V53.2H118.997V54.894H114.055ZM114.055 58.632V56.966H118.717V58.632H114.055ZM112.767 53.2H114.699V63H112.767V53.2Z" fill="black"/>
</svg>
