<svg width="408" height="154" viewBox="0 0 408 154" fill="none" xmlns="http://www.w3.org/2000/svg">
<path d="M0.884943 14V3.81818H4.90199C5.67424 3.81818 6.33215 3.96567 6.87571 4.26065C7.41927 4.55232 7.83357 4.95833 8.11861 5.47869C8.40696 5.99574 8.55114 6.59233 8.55114 7.26847C8.55114 7.9446 8.4053 8.54119 8.11364 9.05824C7.82197 9.57528 7.39938 9.97798 6.84588 10.2663C6.29569 10.5547 5.6295 10.6989 4.8473 10.6989H2.28693V8.97372H4.49929C4.91359 8.97372 5.25497 8.90246 5.52344 8.75994C5.79522 8.61411 5.9974 8.41359 6.12997 8.15838C6.26586 7.89986 6.33381 7.60322 6.33381 7.26847C6.33381 6.9304 6.26586 6.63542 6.12997 6.38352C5.9974 6.12831 5.79522 5.93111 5.52344 5.7919C5.25166 5.64938 4.90696 5.57812 4.48935 5.57812H3.03764V14H0.884943ZM9.90962 14V6.36364H11.9629V7.69602H12.0424C12.1816 7.22206 12.4153 6.86411 12.7434 6.62216C13.0716 6.37689 13.4494 6.25426 13.877 6.25426C13.983 6.25426 14.0974 6.26089 14.22 6.27415C14.3426 6.28741 14.4503 6.30563 14.5431 6.32883V8.2081C14.4437 8.17827 14.3062 8.15175 14.1305 8.12855C13.9548 8.10535 13.7941 8.09375 13.6483 8.09375C13.3367 8.09375 13.0583 8.1617 12.813 8.29759C12.5711 8.43016 12.3788 8.61577 12.2363 8.8544C12.0971 9.09304 12.0275 9.36813 12.0275 9.67969V14H9.90962ZM18.733 14.1491C17.9607 14.1491 17.2929 13.9851 16.7294 13.657C16.1693 13.3255 15.7367 12.8648 15.4318 12.2749C15.1269 11.6816 14.9744 10.9938 14.9744 10.2116C14.9744 9.42282 15.1269 8.73343 15.4318 8.14347C15.7367 7.55019 16.1693 7.08949 16.7294 6.76136C17.2929 6.42992 17.9607 6.2642 18.733 6.2642C19.5052 6.2642 20.1714 6.42992 20.7315 6.76136C21.295 7.08949 21.7292 7.55019 22.0341 8.14347C22.339 8.73343 22.4915 9.42282 22.4915 10.2116C22.4915 10.9938 22.339 11.6816 22.0341 12.2749C21.7292 12.8648 21.295 13.3255 20.7315 13.657C20.1714 13.9851 19.5052 14.1491 18.733 14.1491ZM18.7429 12.5085C19.0942 12.5085 19.3875 12.4091 19.6229 12.2102C19.8582 12.008 20.0355 11.733 20.1548 11.3849C20.2775 11.0369 20.3388 10.6409 20.3388 10.1967C20.3388 9.7526 20.2775 9.35653 20.1548 9.00852C20.0355 8.66051 19.8582 8.38542 19.6229 8.18324C19.3875 7.98106 19.0942 7.87997 18.7429 7.87997C18.3883 7.87997 18.09 7.98106 17.848 8.18324C17.6094 8.38542 17.4287 8.66051 17.3061 9.00852C17.1868 9.35653 17.1271 9.7526 17.1271 10.1967C17.1271 10.6409 17.1868 11.0369 17.3061 11.3849C17.4287 11.733 17.6094 12.008 17.848 12.2102C18.09 12.4091 18.3883 12.5085 18.7429 12.5085ZM27.9751 6.36364V7.95455H23.2621V6.36364H27.9751ZM24.3409 14V5.81179C24.3409 5.25829 24.4486 4.79924 24.6641 4.43466C24.8828 4.07008 25.1811 3.79664 25.5589 3.61435C25.9368 3.43205 26.366 3.34091 26.8466 3.34091C27.1714 3.34091 27.468 3.36577 27.7365 3.41548C28.0083 3.4652 28.2105 3.50994 28.343 3.54972L27.9652 5.14062C27.8823 5.11411 27.7796 5.08925 27.657 5.06605C27.5376 5.04285 27.415 5.03125 27.2891 5.03125C26.9775 5.03125 26.7604 5.10417 26.6378 5.25C26.5152 5.39252 26.4538 5.59304 26.4538 5.85156V14H24.3409ZM29.269 14V6.36364H31.3869V14H29.269ZM30.3329 5.37926C30.0181 5.37926 29.7479 5.27486 29.5225 5.06605C29.3005 4.85393 29.1895 4.60038 29.1895 4.3054C29.1895 4.01373 29.3005 3.76349 29.5225 3.55469C29.7479 3.34257 30.0181 3.23651 30.3329 3.23651C30.6478 3.23651 30.9163 3.34257 31.1383 3.55469C31.3637 3.76349 31.4764 4.01373 31.4764 4.3054C31.4764 4.60038 31.3637 4.85393 31.1383 5.06605C30.9163 5.27486 30.6478 5.37926 30.3329 5.37926ZM35.2013 3.81818V14H33.0835V3.81818H35.2013ZM40.378 14.1491C39.5925 14.1491 38.9164 13.9901 38.3496 13.6719C37.7862 13.3504 37.352 12.8963 37.0471 12.3097C36.7421 11.7197 36.5897 11.022 36.5897 10.2166C36.5897 9.43111 36.7421 8.74171 37.0471 8.14844C37.352 7.55516 37.7812 7.0928 38.3347 6.76136C38.8915 6.42992 39.5444 6.2642 40.2935 6.2642C40.7973 6.2642 41.2663 6.34541 41.7005 6.50781C42.138 6.6669 42.5191 6.9072 42.8439 7.22869C43.1721 7.55019 43.4273 7.95455 43.6096 8.44176C43.7918 8.92566 43.883 9.49242 43.883 10.142V10.7237H37.4348V9.41122H41.8894C41.8894 9.1063 41.8231 8.83617 41.6905 8.60085C41.5579 8.36553 41.374 8.18158 41.1387 8.04901C40.9067 7.91312 40.6365 7.84517 40.3283 7.84517C40.0068 7.84517 39.7218 7.91974 39.4732 8.06889C39.2279 8.21473 39.0357 8.41193 38.8965 8.66051C38.7573 8.90578 38.686 9.17921 38.6827 9.48082V10.7287C38.6827 11.1065 38.7523 11.433 38.8915 11.7081C39.034 11.9832 39.2346 12.1953 39.4931 12.3445C39.7516 12.4936 40.0582 12.5682 40.4128 12.5682C40.6481 12.5682 40.8636 12.535 41.0591 12.4688C41.2547 12.4025 41.4221 12.303 41.5613 12.1705C41.7005 12.0379 41.8065 11.8755 41.8794 11.6832L43.8382 11.8125C43.7388 12.2831 43.535 12.6941 43.2267 13.0455C42.9218 13.3935 42.5274 13.6652 42.0435 13.8608C41.5629 14.053 41.0078 14.1491 40.378 14.1491ZM50.6978 3.81818V14H48.5451V3.81818H50.6978ZM52.4292 14V6.36364H54.4476V7.71094H54.5371C54.6962 7.26349 54.9614 6.91051 55.3326 6.65199C55.7038 6.39347 56.1479 6.2642 56.665 6.2642C57.1886 6.2642 57.6344 6.39512 58.0023 6.65696C58.3702 6.91548 58.6155 7.26681 58.7381 7.71094H58.8176C58.9734 7.27344 59.2551 6.92377 59.6628 6.66193C60.0738 6.39678 60.5594 6.2642 61.1195 6.2642C61.8321 6.2642 62.4105 6.49124 62.8546 6.94531C63.302 7.39607 63.5257 8.03575 63.5257 8.86435V14H61.4128V9.28196C61.4128 8.85772 61.3001 8.53954 61.0748 8.32741C60.8494 8.11529 60.5676 8.00923 60.2296 8.00923C59.8451 8.00923 59.5452 8.13187 59.3297 8.37713C59.1143 8.61908 59.0066 8.93892 59.0066 9.33665V14H56.9533V9.23722C56.9533 8.86269 56.8456 8.56439 56.6301 8.34233C56.418 8.12026 56.138 8.00923 55.79 8.00923C55.5546 8.00923 55.3425 8.06889 55.1536 8.18821C54.968 8.30421 54.8205 8.46828 54.7111 8.6804C54.6017 8.8892 54.5471 9.13447 54.5471 9.41619V14H52.4292ZM67.3762 14.1442C66.889 14.1442 66.4548 14.0597 66.0737 13.8906C65.6925 13.7183 65.3909 13.4647 65.1689 13.13C64.9501 12.7919 64.8407 12.371 64.8407 11.8672C64.8407 11.4429 64.9186 11.0866 65.0744 10.7983C65.2302 10.5099 65.4423 10.2779 65.7108 10.1023C65.9792 9.92661 66.2842 9.79403 66.6255 9.70455C66.9702 9.61506 67.3315 9.55208 67.7093 9.51562C68.1535 9.46922 68.5114 9.42614 68.7832 9.38636C69.055 9.34328 69.2522 9.2803 69.3748 9.19744C69.4975 9.11458 69.5588 8.99195 69.5588 8.82955V8.79972C69.5588 8.48485 69.4593 8.24124 69.2605 8.06889C69.0649 7.89654 68.7865 7.81037 68.4252 7.81037C68.0441 7.81037 67.7408 7.89489 67.5154 8.06392C67.2901 8.22964 67.1409 8.43845 67.068 8.69034L65.1092 8.53125C65.2086 8.06723 65.4042 7.66619 65.6958 7.32812C65.9875 6.98674 66.3637 6.7249 66.8244 6.54261C67.2884 6.35701 67.8253 6.2642 68.4352 6.2642C68.8594 6.2642 69.2654 6.31392 69.6532 6.41335C70.0443 6.51278 70.3907 6.6669 70.6923 6.87571C70.9972 7.08452 71.2375 7.35298 71.4132 7.68111C71.5888 8.00592 71.6767 8.39536 71.6767 8.84943V14H69.6681V12.9411H69.6085C69.4859 13.1797 69.3218 13.3902 69.1163 13.5724C68.9108 13.7514 68.6639 13.8923 68.3755 13.995C68.0872 14.0945 67.7541 14.1442 67.3762 14.1442ZM67.9828 12.6825C68.2943 12.6825 68.5694 12.6212 68.8081 12.4986C69.0467 12.3726 69.234 12.2036 69.3699 11.9915C69.5057 11.7794 69.5737 11.5391 69.5737 11.2706V10.4602C69.5074 10.5033 69.4163 10.5431 69.3002 10.5795C69.1876 10.6127 69.06 10.6442 68.9174 10.674C68.7749 10.7005 68.6324 10.7254 68.4899 10.7486C68.3474 10.7685 68.2181 10.7867 68.1021 10.8033C67.8535 10.8397 67.6364 10.8977 67.4508 10.9773C67.2652 11.0568 67.121 11.1645 67.0183 11.3004C66.9155 11.433 66.8642 11.5987 66.8642 11.7976C66.8642 12.0859 66.9686 12.3063 67.1774 12.4588C67.3895 12.608 67.658 12.6825 67.9828 12.6825ZM76.7601 17.0227C76.074 17.0227 75.4857 16.9283 74.9952 16.7393C74.508 16.5537 74.1202 16.3002 73.8319 15.9787C73.5435 15.6572 73.3562 15.2959 73.2701 14.8949L75.2289 14.6314C75.2885 14.7839 75.383 14.9264 75.5123 15.0589C75.6415 15.1915 75.8122 15.2976 76.0243 15.3771C76.2398 15.46 76.5016 15.5014 76.8098 15.5014C77.2705 15.5014 77.65 15.3887 77.9483 15.1634C78.2499 14.9413 78.4007 14.5684 78.4007 14.0447V12.6477H78.3113C78.2185 12.8598 78.0792 13.0604 77.8936 13.2493C77.708 13.4382 77.4694 13.5923 77.1777 13.7116C76.8861 13.831 76.5381 13.8906 76.1337 13.8906C75.5603 13.8906 75.0383 13.758 74.5676 13.4929C74.1003 13.2244 73.7275 12.8151 73.449 12.2649C73.1739 11.7114 73.0364 11.0121 73.0364 10.1669C73.0364 9.30185 73.1773 8.57931 73.459 7.99929C73.7407 7.41927 74.1152 6.98509 74.5826 6.69673C75.0532 6.40838 75.5686 6.2642 76.1287 6.2642C76.5563 6.2642 76.9142 6.33712 77.2026 6.48295C77.4909 6.62547 77.723 6.80445 77.8986 7.01989C78.0776 7.23201 78.2151 7.44081 78.3113 7.64631H78.3908V6.36364H80.4938V14.0746C80.4938 14.7242 80.3347 15.2678 80.0165 15.7053C79.6983 16.1428 79.2575 16.4709 78.6941 16.6896C78.1339 16.9117 77.4893 17.0227 76.7601 17.0227ZM76.8049 12.2997C77.1462 12.2997 77.4346 12.2152 77.6699 12.0462C77.9086 11.8738 78.0908 11.6286 78.2168 11.3104C78.3461 10.9889 78.4107 10.6044 78.4107 10.157C78.4107 9.70952 78.3477 9.32173 78.2218 8.99361C78.0958 8.66217 77.9135 8.4053 77.6749 8.22301C77.4363 8.04072 77.1462 7.94957 76.8049 7.94957C76.4569 7.94957 76.1635 8.04403 75.9249 8.23295C75.6863 8.41856 75.5056 8.67708 75.383 9.00852C75.2604 9.33996 75.199 9.72277 75.199 10.157C75.199 10.5978 75.2604 10.9789 75.383 11.3004C75.5089 11.6186 75.6896 11.8655 75.9249 12.0412C76.1635 12.2135 76.4569 12.2997 76.8049 12.2997ZM85.6593 14.1491C84.8738 14.1491 84.1976 13.9901 83.6309 13.6719C83.0674 13.3504 82.6332 12.8963 82.3283 12.3097C82.0234 11.7197 81.8709 11.022 81.8709 10.2166C81.8709 9.43111 82.0234 8.74171 82.3283 8.14844C82.6332 7.55516 83.0624 7.0928 83.6159 6.76136C84.1728 6.42992 84.8257 6.2642 85.5748 6.2642C86.0785 6.2642 86.5475 6.34541 86.9817 6.50781C87.4192 6.6669 87.8004 6.9072 88.1252 7.22869C88.4533 7.55019 88.7085 7.95455 88.8908 8.44176C89.0731 8.92566 89.1642 9.49242 89.1642 10.142V10.7237H82.7161V9.41122H87.1706C87.1706 9.1063 87.1043 8.83617 86.9718 8.60085C86.8392 8.36553 86.6552 8.18158 86.4199 8.04901C86.1879 7.91312 85.9178 7.84517 85.6096 7.84517C85.2881 7.84517 85.003 7.91974 84.7544 8.06889C84.5092 8.21473 84.3169 8.41193 84.1777 8.66051C84.0385 8.90578 83.9673 9.17921 83.964 9.48082V10.7287C83.964 11.1065 84.0336 11.433 84.1728 11.7081C84.3153 11.9832 84.5158 12.1953 84.7743 12.3445C85.0328 12.4936 85.3394 12.5682 85.6941 12.5682C85.9294 12.5682 86.1448 12.535 86.3404 12.4688C86.5359 12.4025 86.7033 12.303 86.8425 12.1705C86.9817 12.0379 87.0878 11.8755 87.1607 11.6832L89.1195 11.8125C89.0201 12.2831 88.8162 12.6941 88.508 13.0455C88.2031 13.3935 87.8087 13.6652 87.3248 13.8608C86.8442 14.053 86.289 14.1491 85.6593 14.1491Z" fill="#222222"/>
<g filter="url(#filter0_d_0_189)">
<g clip-path="url(#clip0_0_189)">
<path d="M0 47.16C0 39.5314 0 35.7172 1.6711 32.8915C2.70001 31.1517 4.15171 29.7 5.8915 28.6711C8.71717 27 12.5314 27 20.16 27H387.84C395.469 27 399.283 27 402.108 28.6711C403.848 29.7 405.3 31.1517 406.329 32.8915C408 35.7172 408 39.5314 408 47.16V129.84C408 137.469 408 141.283 406.329 144.108C405.3 145.848 403.848 147.3 402.108 148.329C399.283 150 395.469 150 387.84 150H20.16C12.5314 150 8.71717 150 5.8915 148.329C4.15171 147.3 2.70001 145.848 1.6711 144.108C0 141.283 0 137.469 0 129.84V47.16Z" fill="white"/>
<path d="M204.833 40.1667H205.061C207.778 40.1667 209.137 40.1667 210.081 40.8315C210.351 41.022 210.591 41.2479 210.794 41.5024C211.5 42.3906 211.5 43.6695 211.5 46.2273V48.3485C211.5 50.8178 211.5 52.0524 211.109 53.0385C210.481 54.6238 209.152 55.8743 207.468 56.4655C206.42 56.8333 205.108 56.8333 202.485 56.8333C200.986 56.8333 200.236 56.8333 199.637 56.6232C198.675 56.2853 197.916 55.5707 197.557 54.6649C197.333 54.1014 197.333 53.3959 197.333 51.9848V48.5" stroke="#7F5CF4" stroke-width="1.05263" stroke-linecap="round" stroke-linejoin="round"/>
<path d="M211.5 48.5C211.5 50.0341 210.256 51.2778 208.722 51.2778C208.167 51.2778 207.513 51.1806 206.974 51.3251C206.495 51.4535 206.12 51.8279 205.992 52.3072C205.847 52.8466 205.944 53.5007 205.944 54.0556C205.944 55.5897 204.701 56.8333 203.167 56.8333" stroke="#7F5CF4" stroke-width="1.05263" stroke-linecap="round" stroke-linejoin="round"/>
<path d="M203.167 43.5L196.5 43.5M199.833 40.1667V46.8333" stroke="#7F5CF4" stroke-width="1.05263" stroke-linecap="round"/>
<path opacity="0.5" d="M159.32 88.668C158.359 88.668 157.528 88.458 156.828 88.038C156.137 87.6087 155.601 87.016 155.218 86.26C154.845 85.4947 154.658 84.608 154.658 83.6C154.658 82.6013 154.845 81.7193 155.218 80.954C155.601 80.1887 156.137 79.596 156.828 79.176C157.528 78.7467 158.359 78.532 159.32 78.532C160.468 78.532 161.397 78.8073 162.106 79.358C162.825 79.9087 163.282 80.6833 163.478 81.682H161.938C161.798 81.1033 161.509 80.6413 161.07 80.296C160.641 79.9507 160.057 79.778 159.32 79.778C158.657 79.778 158.083 79.932 157.598 80.24C157.113 80.548 156.739 80.9867 156.478 81.556C156.217 82.1253 156.086 82.8067 156.086 83.6C156.086 84.3933 156.217 85.0793 156.478 85.658C156.739 86.2273 157.113 86.666 157.598 86.974C158.083 87.2727 158.657 87.422 159.32 87.422C160.057 87.422 160.641 87.2587 161.07 86.932C161.509 86.596 161.798 86.1433 161.938 85.574H163.478C163.282 86.5447 162.825 87.3053 162.106 87.856C161.397 88.3973 160.468 88.668 159.32 88.668ZM165.083 88.5V78.42H166.483V88.5H165.083ZM168.503 88.5V81.444H169.903V88.5H168.503ZM169.217 80.114C168.946 80.114 168.722 80.03 168.545 79.862C168.377 79.694 168.293 79.4793 168.293 79.218C168.293 78.966 168.377 78.7607 168.545 78.602C168.722 78.434 168.946 78.35 169.217 78.35C169.478 78.35 169.698 78.434 169.875 78.602C170.052 78.7607 170.141 78.966 170.141 79.218C170.141 79.4793 170.052 79.694 169.875 79.862C169.698 80.03 169.478 80.114 169.217 80.114ZM175.167 88.668C174.486 88.668 173.879 88.514 173.347 88.206C172.815 87.8887 172.395 87.4547 172.087 86.904C171.788 86.3533 171.639 85.714 171.639 84.986C171.639 84.2487 171.788 83.6047 172.087 83.054C172.395 82.494 172.815 82.06 173.347 81.752C173.879 81.4347 174.486 81.276 175.167 81.276C176.026 81.276 176.744 81.5 177.323 81.948C177.902 82.396 178.27 83.0027 178.429 83.768H176.973C176.88 83.3573 176.665 83.04 176.329 82.816C176.002 82.592 175.61 82.48 175.153 82.48C174.78 82.48 174.434 82.578 174.117 82.774C173.8 82.9607 173.543 83.2407 173.347 83.614C173.16 83.978 173.067 84.4307 173.067 84.972C173.067 85.3733 173.123 85.7327 173.235 86.05C173.347 86.358 173.496 86.6193 173.683 86.834C173.879 87.0487 174.103 87.212 174.355 87.324C174.607 87.4267 174.873 87.478 175.153 87.478C175.461 87.478 175.736 87.4313 175.979 87.338C176.231 87.2353 176.441 87.086 176.609 86.89C176.786 86.694 176.908 86.4607 176.973 86.19H178.429C178.27 86.9367 177.902 87.5387 177.323 87.996C176.744 88.444 176.026 88.668 175.167 88.668ZM184.505 88.5L181.257 84.636L184.197 81.444H185.891L182.391 85.182V84.132L186.269 88.5H184.505ZM180.067 88.5V78.42H181.467V88.5H180.067ZM193.944 88.5C193.496 88.5 193.109 88.43 192.782 88.29C192.455 88.15 192.203 87.9167 192.026 87.59C191.849 87.2633 191.76 86.82 191.76 86.26V82.634H190.542V81.444H191.76L191.928 79.68H193.16V81.444H195.162V82.634H193.16V86.274C193.16 86.6753 193.244 86.9507 193.412 87.1C193.58 87.24 193.869 87.31 194.28 87.31H195.092V88.5H193.944ZM199.735 88.668C199.072 88.668 198.475 88.514 197.943 88.206C197.42 87.898 197.005 87.4687 196.697 86.918C196.398 86.358 196.249 85.714 196.249 84.986C196.249 84.2393 196.403 83.5907 196.711 83.04C197.019 82.48 197.439 82.046 197.971 81.738C198.503 81.43 199.1 81.276 199.763 81.276C200.435 81.276 201.032 81.43 201.555 81.738C202.077 82.046 202.488 82.4753 202.787 83.026C203.095 83.5767 203.249 84.2253 203.249 84.972C203.249 85.7187 203.095 86.3673 202.787 86.918C202.488 87.4687 202.073 87.898 201.541 88.206C201.009 88.514 200.407 88.668 199.735 88.668ZM199.735 87.464C200.117 87.464 200.463 87.3707 200.771 87.184C201.088 86.9973 201.34 86.722 201.527 86.358C201.723 85.9847 201.821 85.5227 201.821 84.972C201.821 84.4213 201.727 83.964 201.541 83.6C201.354 83.2267 201.102 82.9467 200.785 82.76C200.477 82.5733 200.136 82.48 199.763 82.48C199.389 82.48 199.044 82.5733 198.727 82.76C198.409 82.9467 198.153 83.2267 197.957 83.6C197.77 83.964 197.677 84.4213 197.677 84.972C197.677 85.5227 197.77 85.9847 197.957 86.358C198.153 86.722 198.405 86.9973 198.713 87.184C199.03 87.3707 199.371 87.464 199.735 87.464ZM211.067 88.668C210.517 88.668 210.036 88.556 209.625 88.332C209.224 88.108 208.911 87.772 208.687 87.324C208.473 86.876 208.365 86.3113 208.365 85.63V81.444H209.765V85.476C209.765 86.1387 209.91 86.638 210.199 86.974C210.489 87.31 210.904 87.478 211.445 87.478C211.809 87.478 212.136 87.3893 212.425 87.212C212.724 87.0347 212.957 86.778 213.125 86.442C213.293 86.106 213.377 85.6953 213.377 85.21V81.444H214.777V88.5H213.531L213.433 87.296C213.219 87.7253 212.906 88.0613 212.495 88.304C212.085 88.5467 211.609 88.668 211.067 88.668ZM216.694 91.58V81.444H217.954L218.094 82.536C218.244 82.3213 218.43 82.1207 218.654 81.934C218.878 81.738 219.144 81.5793 219.452 81.458C219.77 81.3367 220.138 81.276 220.558 81.276C221.23 81.276 221.818 81.4393 222.322 81.766C222.836 82.0927 223.232 82.536 223.512 83.096C223.802 83.6467 223.946 84.2767 223.946 84.986C223.946 85.6953 223.802 86.33 223.512 86.89C223.223 87.4407 222.822 87.8747 222.308 88.192C221.804 88.5093 221.216 88.668 220.544 88.668C219.994 88.668 219.508 88.5607 219.088 88.346C218.668 88.122 218.337 87.814 218.094 87.422V91.58H216.694ZM220.32 87.45C220.75 87.45 221.128 87.3473 221.454 87.142C221.79 86.9367 222.052 86.6473 222.238 86.274C222.434 85.9007 222.532 85.4667 222.532 84.972C222.532 84.4773 222.434 84.048 222.238 83.684C222.052 83.3107 221.79 83.0213 221.454 82.816C221.128 82.6013 220.75 82.494 220.32 82.494C219.882 82.494 219.494 82.6013 219.158 82.816C218.832 83.0213 218.575 83.3107 218.388 83.684C218.202 84.048 218.108 84.4773 218.108 84.972C218.108 85.4667 218.202 85.9007 218.388 86.274C218.575 86.6473 218.832 86.9367 219.158 87.142C219.494 87.3473 219.882 87.45 220.32 87.45ZM225.581 88.5V78.42H226.981V88.5H225.581ZM232.123 88.668C231.461 88.668 230.863 88.514 230.331 88.206C229.809 87.898 229.393 87.4687 229.085 86.918C228.787 86.358 228.637 85.714 228.637 84.986C228.637 84.2393 228.791 83.5907 229.099 83.04C229.407 82.48 229.827 82.046 230.359 81.738C230.891 81.43 231.489 81.276 232.151 81.276C232.823 81.276 233.421 81.43 233.943 81.738C234.466 82.046 234.877 82.4753 235.175 83.026C235.483 83.5767 235.637 84.2253 235.637 84.972C235.637 85.7187 235.483 86.3673 235.175 86.918C234.877 87.4687 234.461 87.898 233.929 88.206C233.397 88.514 232.795 88.668 232.123 88.668ZM232.123 87.464C232.506 87.464 232.851 87.3707 233.159 87.184C233.477 86.9973 233.729 86.722 233.915 86.358C234.111 85.9847 234.209 85.5227 234.209 84.972C234.209 84.4213 234.116 83.964 233.929 83.6C233.743 83.2267 233.491 82.9467 233.173 82.76C232.865 82.5733 232.525 82.48 232.151 82.48C231.778 82.48 231.433 82.5733 231.115 82.76C230.798 82.9467 230.541 83.2267 230.345 83.6C230.159 83.964 230.065 84.4213 230.065 84.972C230.065 85.5227 230.159 85.9847 230.345 86.358C230.541 86.722 230.793 86.9973 231.101 87.184C231.419 87.3707 231.759 87.464 232.123 87.464ZM239.622 88.668C239.043 88.668 238.563 88.57 238.18 88.374C237.797 88.178 237.513 87.9167 237.326 87.59C237.139 87.254 237.046 86.8947 237.046 86.512C237.046 86.0453 237.167 85.6487 237.41 85.322C237.653 84.986 237.998 84.7293 238.446 84.552C238.894 84.3747 239.431 84.286 240.056 84.286H241.89C241.89 83.8753 241.829 83.5347 241.708 83.264C241.587 82.9933 241.405 82.7927 241.162 82.662C240.929 82.522 240.63 82.452 240.266 82.452C239.846 82.452 239.487 82.5547 239.188 82.76C238.889 82.956 238.703 83.25 238.628 83.642H237.228C237.284 83.1473 237.452 82.7273 237.732 82.382C238.021 82.0273 238.39 81.7567 238.838 81.57C239.286 81.374 239.762 81.276 240.266 81.276C240.929 81.276 241.484 81.3927 241.932 81.626C242.38 81.8593 242.716 82.1907 242.94 82.62C243.173 83.04 243.29 83.544 243.29 84.132V88.5H242.072L241.96 87.31C241.857 87.4967 241.736 87.674 241.596 87.842C241.456 88.01 241.288 88.1547 241.092 88.276C240.905 88.3973 240.686 88.4907 240.434 88.556C240.191 88.6307 239.921 88.668 239.622 88.668ZM239.888 87.534C240.187 87.534 240.457 87.4733 240.7 87.352C240.943 87.2307 241.148 87.0673 241.316 86.862C241.493 86.6473 241.624 86.4093 241.708 86.148C241.801 85.8773 241.853 85.602 241.862 85.322V85.28H240.196C239.795 85.28 239.468 85.3313 239.216 85.434C238.973 85.5273 238.796 85.658 238.684 85.826C238.572 85.994 238.516 86.19 238.516 86.414C238.516 86.6473 238.567 86.848 238.67 87.016C238.782 87.1747 238.941 87.3007 239.146 87.394C239.351 87.4873 239.599 87.534 239.888 87.534ZM248.213 88.668C247.541 88.668 246.948 88.5093 246.435 88.192C245.922 87.8653 245.52 87.4267 245.231 86.876C244.951 86.316 244.811 85.6813 244.811 84.972C244.811 84.2533 244.951 83.6187 245.231 83.068C245.52 82.5173 245.922 82.0833 246.435 81.766C246.958 81.4393 247.555 81.276 248.227 81.276C248.778 81.276 249.263 81.388 249.683 81.612C250.103 81.8267 250.43 82.1347 250.663 82.536V78.42H252.063V88.5H250.803L250.663 87.408C250.523 87.6227 250.341 87.828 250.117 88.024C249.893 88.2107 249.622 88.3647 249.305 88.486C248.988 88.6073 248.624 88.668 248.213 88.668ZM248.437 87.45C248.876 87.45 249.263 87.3473 249.599 87.142C249.935 86.9367 250.192 86.6473 250.369 86.274C250.556 85.9007 250.649 85.4667 250.649 84.972C250.649 84.4773 250.556 84.048 250.369 83.684C250.192 83.3107 249.935 83.0213 249.599 82.816C249.263 82.6013 248.876 82.494 248.437 82.494C248.017 82.494 247.639 82.6013 247.303 82.816C246.967 83.0213 246.706 83.3107 246.519 83.684C246.332 84.048 246.239 84.4773 246.239 84.972C246.239 85.4667 246.332 85.9007 246.519 86.274C246.706 86.6473 246.967 86.9367 247.303 87.142C247.639 87.3473 248.017 87.45 248.437 87.45Z" fill="#6C7278"/>
<rect x="132.5" y="115" width="39" height="24" rx="6" fill="#F4F1FF"/>
<path d="M143.392 131.144C142.872 131.144 142.424 131.048 142.048 130.856C141.672 130.656 141.38 130.368 141.172 129.992C140.964 129.616 140.86 129.168 140.86 128.648H142.072C142.072 128.92 142.116 129.164 142.204 129.38C142.292 129.596 142.428 129.768 142.612 129.896C142.804 130.016 143.056 130.076 143.368 130.076C143.672 130.076 143.916 130.016 144.1 129.896C144.284 129.776 144.416 129.616 144.496 129.416C144.576 129.208 144.616 128.972 144.616 128.708V122.6H145.816V128.708C145.816 129.484 145.6 130.084 145.168 130.508C144.736 130.932 144.144 131.144 143.392 131.144ZM147.587 131V122.6H150.443C151.115 122.6 151.667 122.712 152.099 122.936C152.539 123.16 152.863 123.464 153.071 123.848C153.279 124.224 153.383 124.656 153.383 125.144C153.383 125.608 153.279 126.032 153.071 126.416C152.863 126.8 152.543 127.108 152.111 127.34C151.679 127.564 151.123 127.676 150.443 127.676H148.787V131H147.587ZM148.787 126.68H150.395C151.035 126.68 151.487 126.54 151.751 126.26C152.023 125.98 152.159 125.608 152.159 125.144C152.159 124.656 152.023 124.276 151.751 124.004C151.487 123.732 151.035 123.596 150.395 123.596H148.787V126.68ZM158.325 131.144C157.541 131.144 156.853 130.964 156.261 130.604C155.669 130.244 155.209 129.74 154.881 129.092C154.553 128.444 154.389 127.688 154.389 126.824C154.389 125.968 154.553 125.212 154.881 124.556C155.217 123.9 155.693 123.388 156.309 123.02C156.933 122.644 157.665 122.456 158.505 122.456C159.465 122.456 160.265 122.688 160.905 123.152C161.545 123.608 161.953 124.244 162.129 125.06H160.773C160.653 124.596 160.397 124.232 160.005 123.968C159.621 123.696 159.121 123.56 158.505 123.56C157.913 123.56 157.397 123.692 156.957 123.956C156.525 124.22 156.193 124.596 155.961 125.084C155.729 125.572 155.613 126.152 155.613 126.824C155.613 127.504 155.729 128.088 155.961 128.576C156.193 129.064 156.517 129.436 156.933 129.692C157.357 129.948 157.849 130.076 158.409 130.076C159.249 130.076 159.885 129.832 160.317 129.344C160.749 128.856 161.001 128.204 161.073 127.388H158.757V126.464H162.285V131H161.181L161.085 129.716C160.893 130.028 160.669 130.292 160.413 130.508C160.165 130.716 159.869 130.876 159.525 130.988C159.189 131.092 158.789 131.144 158.325 131.144Z" fill="#7F5CF4"/>
<rect x="177.5" y="115" width="41" height="24" rx="6" fill="#F4F1FF"/>
<path d="M186.388 131V122.6H189.244C189.916 122.6 190.468 122.712 190.9 122.936C191.34 123.16 191.664 123.464 191.872 123.848C192.08 124.224 192.184 124.656 192.184 125.144C192.184 125.608 192.08 126.032 191.872 126.416C191.664 126.8 191.344 127.108 190.912 127.34C190.48 127.564 189.924 127.676 189.244 127.676H187.588V131H186.388ZM187.588 126.68H189.196C189.836 126.68 190.288 126.54 190.552 126.26C190.824 125.98 190.96 125.608 190.96 125.144C190.96 124.656 190.824 124.276 190.552 124.004C190.288 123.732 189.836 123.596 189.196 123.596H187.588V126.68ZM193.501 131V122.6H194.701L198.985 129.044V122.6H200.185V131H198.985L194.701 124.556V131H193.501ZM205.586 131.144C204.802 131.144 204.114 130.964 203.522 130.604C202.93 130.244 202.47 129.74 202.142 129.092C201.814 128.444 201.65 127.688 201.65 126.824C201.65 125.968 201.814 125.212 202.142 124.556C202.478 123.9 202.954 123.388 203.57 123.02C204.194 122.644 204.926 122.456 205.766 122.456C206.726 122.456 207.526 122.688 208.166 123.152C208.806 123.608 209.214 124.244 209.39 125.06H208.034C207.914 124.596 207.658 124.232 207.266 123.968C206.882 123.696 206.382 123.56 205.766 123.56C205.174 123.56 204.658 123.692 204.218 123.956C203.786 124.22 203.454 124.596 203.222 125.084C202.99 125.572 202.874 126.152 202.874 126.824C202.874 127.504 202.99 128.088 203.222 128.576C203.454 129.064 203.778 129.436 204.194 129.692C204.618 129.948 205.11 130.076 205.67 130.076C206.51 130.076 207.146 129.832 207.578 129.344C208.01 128.856 208.262 128.204 208.334 127.388H206.018V126.464H209.546V131H208.442L208.346 129.716C208.154 130.028 207.93 130.292 207.674 130.508C207.426 130.716 207.13 130.876 206.786 130.988C206.45 131.092 206.05 131.144 205.586 131.144Z" fill="#7F5CF4"/>
<rect x="225" y="115.5" width="50" height="23" rx="5.5" stroke="#F4F1FF"/>
<path d="M233.676 130.34L236.52 127.604L233.676 124.844H235.2L238.032 127.604L235.2 130.34H233.676ZM244.277 131V123.956L242.705 124.412V123.476L244.721 122.6H245.501V131H244.277ZM250.368 131V122.6H251.784L254.58 128.288L257.364 122.6H258.78V131H257.58V124.712L255.036 129.848H254.112L251.568 124.736V131H250.368ZM260.564 131V122.6H263.672C264.264 122.6 264.756 122.696 265.148 122.888C265.54 123.072 265.832 123.328 266.024 123.656C266.224 123.976 266.324 124.34 266.324 124.748C266.324 125.172 266.228 125.528 266.036 125.816C265.852 126.104 265.608 126.328 265.304 126.488C265.008 126.64 264.688 126.728 264.344 126.752L264.524 126.632C264.892 126.64 265.224 126.74 265.52 126.932C265.824 127.116 266.064 127.364 266.24 127.676C266.424 127.988 266.516 128.332 266.516 128.708C266.516 129.14 266.408 129.532 266.192 129.884C265.984 130.228 265.676 130.5 265.268 130.7C264.868 130.9 264.372 131 263.78 131H260.564ZM261.764 130.004H263.624C264.152 130.004 264.56 129.884 264.848 129.644C265.144 129.396 265.292 129.048 265.292 128.6C265.292 128.16 265.14 127.808 264.836 127.544C264.54 127.28 264.128 127.148 263.6 127.148H261.764V130.004ZM261.764 126.224H263.54C264.044 126.224 264.428 126.108 264.692 125.876C264.956 125.636 265.088 125.308 265.088 124.892C265.088 124.492 264.956 124.176 264.692 123.944C264.428 123.704 264.036 123.584 263.516 123.584H261.764V126.224Z" fill="#7F5CF4"/>
</g>
<path d="M20.1602 28H387.84C391.673 28 394.48 28.0014 396.684 28.2051C398.873 28.4074 400.367 28.8032 401.6 29.5322C403.194 30.4753 404.525 31.8058 405.468 33.4004C406.197 34.6332 406.593 36.1271 406.795 38.3164C406.999 40.5201 407 43.3271 407 47.1602V129.84C407 133.673 406.999 136.48 406.795 138.684C406.593 140.873 406.197 142.367 405.468 143.6C404.525 145.194 403.194 146.525 401.6 147.468C400.367 148.197 398.873 148.593 396.684 148.795C394.48 148.999 391.673 149 387.84 149H20.1602C16.3271 149 13.5201 148.999 11.3164 148.795C9.12712 148.593 7.63316 148.197 6.40039 147.468C4.8058 146.525 3.47533 145.194 2.53223 143.6C1.80317 142.367 1.40742 140.873 1.20508 138.684C1.00143 136.48 1 133.673 1 129.84V47.1602L1.00293 44.4707C1.01276 41.9611 1.05235 39.9691 1.20508 38.3164C1.40742 36.1271 1.80317 34.6332 2.53223 33.4004C3.47533 31.8058 4.8058 30.4753 6.40039 29.5322C7.63316 28.8032 9.12712 28.4074 11.3164 28.2051C13.5201 28.0014 16.3271 28 20.1602 28Z" stroke="#E7E7E5" stroke-width="2"/>
</g>
<defs>
<filter id="filter0_d_0_189" x="0" y="27" width="408" height="127" filterUnits="userSpaceOnUse" color-interpolation-filters="sRGB">
<feFlood flood-opacity="0" result="BackgroundImageFix"/>
<feColorMatrix in="SourceAlpha" type="matrix" values="0 0 0 0 0 0 0 0 0 0 0 0 0 0 0 0 0 0 127 0" result="hardAlpha"/>
<feOffset dy="4"/>
<feComposite in2="hardAlpha" operator="out"/>
<feColorMatrix type="matrix" values="0 0 0 0 0.905882 0 0 0 0 0.905882 0 0 0 0 0.898039 0 0 0 1 0"/>
<feBlend mode="normal" in2="BackgroundImageFix" result="effect1_dropShadow_0_189"/>
<feBlend mode="normal" in="SourceGraphic" in2="effect1_dropShadow_0_189" result="shape"/>
</filter>
<clipPath id="clip0_0_189">
<path d="M0 47.16C0 39.5314 0 35.7172 1.6711 32.8915C2.70001 31.1517 4.15171 29.7 5.8915 28.6711C8.71717 27 12.5314 27 20.16 27H387.84C395.469 27 399.283 27 402.108 28.6711C403.848 29.7 405.3 31.1517 406.329 32.8915C408 35.7172 408 39.5314 408 47.16V129.84C408 137.469 408 141.283 406.329 144.108C405.3 145.848 403.848 147.3 402.108 148.329C399.283 150 395.469 150 387.84 150H20.16C12.5314 150 8.71717 150 5.8915 148.329C4.15171 147.3 2.70001 145.848 1.6711 144.108C0 141.283 0 137.469 0 129.84V47.16Z" fill="white"/>
</clipPath>
</defs>
</svg>
